<mxfile host="app.diagrams.net" modified="2020-10-31T19:22:32.071Z" agent="5.0 (Windows NT 10.0; Win64; x64) AppleWebKit/537.36 (KHTML, like Gecko) Chrome/86.0.4240.111 Safari/537.36" etag="7U9_nTgzEuSxcmck4_4p" version="13.8.8" type="github">
  <diagram id="t2MNdMdxcZ_bHqu0hGdV" name="Page-1">
    <mxGraphModel dx="813" dy="398" grid="1" gridSize="10" guides="1" tooltips="1" connect="1" arrows="1" fold="1" page="1" pageScale="1" pageWidth="827" pageHeight="1169" math="0" shadow="0">
      <root>
        <mxCell id="0" />
        <mxCell id="1" parent="0" />
        <mxCell id="O3lrr17sqKXVpt-QXPSw-1" value="ENVÍAN" style="shape=rhombus;perimeter=rhombusPerimeter;whiteSpace=wrap;html=1;align=center;fillColor=#d5e8d4;strokeColor=#82b366;" vertex="1" parent="1">
          <mxGeometry x="340" y="100" width="120" height="60" as="geometry" />
        </mxCell>
        <mxCell id="O3lrr17sqKXVpt-QXPSw-2" value="PARTICIPANTES" style="whiteSpace=wrap;html=1;align=center;fillColor=#dae8fc;strokeColor=#6c8ebf;" vertex="1" parent="1">
          <mxGeometry x="350" y="190" width="100" height="40" as="geometry" />
        </mxCell>
        <mxCell id="O3lrr17sqKXVpt-QXPSw-3" value="(1,1)" style="text;html=1;strokeColor=none;fillColor=none;align=center;verticalAlign=middle;whiteSpace=wrap;rounded=0;" vertex="1" parent="1">
          <mxGeometry x="360" y="70" width="40" height="20" as="geometry" />
        </mxCell>
        <mxCell id="O3lrr17sqKXVpt-QXPSw-4" value="1:N" style="text;html=1;strokeColor=none;fillColor=none;align=center;verticalAlign=middle;whiteSpace=wrap;rounded=0;" vertex="1" parent="1">
          <mxGeometry x="300" y="120" width="40" height="20" as="geometry" />
        </mxCell>
        <mxCell id="O3lrr17sqKXVpt-QXPSw-5" value="NOMBRE" style="ellipse;whiteSpace=wrap;html=1;align=center;fillColor=#ffe6cc;strokeColor=#d79b00;" vertex="1" parent="1">
          <mxGeometry x="480" y="30" width="110" height="40" as="geometry" />
        </mxCell>
        <mxCell id="O3lrr17sqKXVpt-QXPSw-6" value="" style="triangle;whiteSpace=wrap;html=1;rotation=90;" vertex="1" parent="1">
          <mxGeometry x="380" y="260" width="40" height="70" as="geometry" />
        </mxCell>
        <mxCell id="O3lrr17sqKXVpt-QXPSw-7" value="" style="ellipse;whiteSpace=wrap;html=1;aspect=fixed;" vertex="1" parent="1">
          <mxGeometry x="390" y="250" width="20" height="20" as="geometry" />
        </mxCell>
        <mxCell id="O3lrr17sqKXVpt-QXPSw-8" value="" style="endArrow=none;html=1;entryX=0.5;entryY=1;entryDx=0;entryDy=0;exitX=0;exitY=0.5;exitDx=0;exitDy=0;" edge="1" parent="1" source="O3lrr17sqKXVpt-QXPSw-6" target="O3lrr17sqKXVpt-QXPSw-7">
          <mxGeometry width="50" height="50" relative="1" as="geometry">
            <mxPoint x="370" y="340" as="sourcePoint" />
            <mxPoint x="420" y="290" as="targetPoint" />
          </mxGeometry>
        </mxCell>
        <mxCell id="O3lrr17sqKXVpt-QXPSw-9" value="" style="endArrow=none;html=1;entryX=0.5;entryY=0;entryDx=0;entryDy=0;exitX=0.5;exitY=1;exitDx=0;exitDy=0;" edge="1" parent="1" source="O3lrr17sqKXVpt-QXPSw-2" target="O3lrr17sqKXVpt-QXPSw-7">
          <mxGeometry width="50" height="50" relative="1" as="geometry">
            <mxPoint x="330" y="330" as="sourcePoint" />
            <mxPoint x="380" y="280" as="targetPoint" />
          </mxGeometry>
        </mxCell>
        <mxCell id="O3lrr17sqKXVpt-QXPSw-31" style="edgeStyle=orthogonalEdgeStyle;rounded=0;orthogonalLoop=1;jettySize=auto;html=1;exitX=0.25;exitY=1;exitDx=0;exitDy=0;entryX=0;entryY=0.5;entryDx=0;entryDy=0;endArrow=none;endFill=0;" edge="1" parent="1" source="O3lrr17sqKXVpt-QXPSw-10" target="O3lrr17sqKXVpt-QXPSw-32">
          <mxGeometry relative="1" as="geometry">
            <mxPoint x="205" y="680" as="targetPoint" />
            <Array as="points">
              <mxPoint x="205" y="680" />
            </Array>
          </mxGeometry>
        </mxCell>
        <mxCell id="O3lrr17sqKXVpt-QXPSw-10" value="JUGADORES" style="whiteSpace=wrap;html=1;align=center;fillColor=#dae8fc;strokeColor=#6c8ebf;" vertex="1" parent="1">
          <mxGeometry x="180" y="400" width="100" height="40" as="geometry" />
        </mxCell>
        <mxCell id="O3lrr17sqKXVpt-QXPSw-36" style="edgeStyle=orthogonalEdgeStyle;rounded=0;orthogonalLoop=1;jettySize=auto;html=1;exitX=0.75;exitY=1;exitDx=0;exitDy=0;entryX=1;entryY=0.5;entryDx=0;entryDy=0;endArrow=none;endFill=0;" edge="1" parent="1" source="O3lrr17sqKXVpt-QXPSw-11" target="O3lrr17sqKXVpt-QXPSw-34">
          <mxGeometry relative="1" as="geometry">
            <Array as="points">
              <mxPoint x="595" y="680" />
            </Array>
          </mxGeometry>
        </mxCell>
        <mxCell id="O3lrr17sqKXVpt-QXPSw-11" value="ÁRBITROS" style="whiteSpace=wrap;html=1;align=center;fillColor=#dae8fc;strokeColor=#6c8ebf;" vertex="1" parent="1">
          <mxGeometry x="520" y="400" width="100" height="40" as="geometry" />
        </mxCell>
        <mxCell id="O3lrr17sqKXVpt-QXPSw-12" value="ALOJAN" style="shape=rhombus;perimeter=rhombusPerimeter;whiteSpace=wrap;html=1;align=center;fillColor=#d5e8d4;strokeColor=#82b366;" vertex="1" parent="1">
          <mxGeometry x="340" y="390" width="120" height="60" as="geometry" />
        </mxCell>
        <mxCell id="O3lrr17sqKXVpt-QXPSw-14" value="" style="endArrow=none;html=1;" edge="1" parent="1">
          <mxGeometry width="50" height="50" relative="1" as="geometry">
            <mxPoint x="360" y="290" as="sourcePoint" />
            <mxPoint x="440" y="290" as="targetPoint" />
            <Array as="points">
              <mxPoint x="400" y="320" />
            </Array>
          </mxGeometry>
        </mxCell>
        <mxCell id="O3lrr17sqKXVpt-QXPSw-15" value="DT" style="text;html=1;strokeColor=none;fillColor=none;align=center;verticalAlign=middle;whiteSpace=wrap;rounded=0;shadow=0;" vertex="1" parent="1">
          <mxGeometry x="440" y="260" width="40" height="20" as="geometry" />
        </mxCell>
        <mxCell id="O3lrr17sqKXVpt-QXPSw-16" value="HOTELES" style="whiteSpace=wrap;html=1;align=center;fillColor=#dae8fc;strokeColor=#6c8ebf;" vertex="1" parent="1">
          <mxGeometry x="350" y="480" width="100" height="40" as="geometry" />
        </mxCell>
        <mxCell id="O3lrr17sqKXVpt-QXPSw-17" value="(1,N)" style="text;html=1;strokeColor=none;fillColor=none;align=center;verticalAlign=middle;whiteSpace=wrap;rounded=0;" vertex="1" parent="1">
          <mxGeometry x="360" y="460" width="40" height="20" as="geometry" />
        </mxCell>
        <mxCell id="O3lrr17sqKXVpt-QXPSw-18" value="FECHA_SALIDA" style="ellipse;whiteSpace=wrap;html=1;align=center;fillColor=#ffe6cc;strokeColor=#d79b00;" vertex="1" parent="1">
          <mxGeometry x="230" y="530" width="100" height="40" as="geometry" />
        </mxCell>
        <mxCell id="O3lrr17sqKXVpt-QXPSw-19" value="CIF" style="ellipse;whiteSpace=wrap;html=1;align=center;fillColor=#ffe6cc;strokeColor=#d79b00;fontStyle=4" vertex="1" parent="1">
          <mxGeometry x="230" y="480" width="100" height="40" as="geometry" />
        </mxCell>
        <mxCell id="O3lrr17sqKXVpt-QXPSw-20" value="FECHA_ENTRADA" style="ellipse;whiteSpace=wrap;html=1;align=center;fillColor=#ffe6cc;strokeColor=#d79b00;" vertex="1" parent="1">
          <mxGeometry x="345" y="560" width="110" height="40" as="geometry" />
        </mxCell>
        <mxCell id="O3lrr17sqKXVpt-QXPSw-21" value="DIRECCIÓN" style="ellipse;whiteSpace=wrap;html=1;align=center;fillColor=#ffe6cc;strokeColor=#d79b00;" vertex="1" parent="1">
          <mxGeometry x="470" y="530" width="100" height="40" as="geometry" />
        </mxCell>
        <mxCell id="O3lrr17sqKXVpt-QXPSw-22" value="TELÉFONO" style="ellipse;whiteSpace=wrap;html=1;align=center;fillColor=#ffe6cc;strokeColor=#d79b00;" vertex="1" parent="1">
          <mxGeometry x="470" y="480" width="100" height="40" as="geometry" />
        </mxCell>
        <mxCell id="O3lrr17sqKXVpt-QXPSw-23" value="" style="endArrow=none;html=1;entryX=1;entryY=0.5;entryDx=0;entryDy=0;exitX=0;exitY=0.5;exitDx=0;exitDy=0;" edge="1" parent="1" source="O3lrr17sqKXVpt-QXPSw-16" target="O3lrr17sqKXVpt-QXPSw-19">
          <mxGeometry width="50" height="50" relative="1" as="geometry">
            <mxPoint x="230" y="610" as="sourcePoint" />
            <mxPoint x="280" y="560" as="targetPoint" />
          </mxGeometry>
        </mxCell>
        <mxCell id="O3lrr17sqKXVpt-QXPSw-24" value="" style="endArrow=none;html=1;exitX=0;exitY=1;exitDx=0;exitDy=0;entryX=1;entryY=0.5;entryDx=0;entryDy=0;" edge="1" parent="1" source="O3lrr17sqKXVpt-QXPSw-16" target="O3lrr17sqKXVpt-QXPSw-18">
          <mxGeometry width="50" height="50" relative="1" as="geometry">
            <mxPoint x="230" y="610" as="sourcePoint" />
            <mxPoint x="280" y="560" as="targetPoint" />
          </mxGeometry>
        </mxCell>
        <mxCell id="O3lrr17sqKXVpt-QXPSw-25" value="" style="endArrow=none;html=1;exitX=0.5;exitY=1;exitDx=0;exitDy=0;entryX=0.5;entryY=0;entryDx=0;entryDy=0;" edge="1" parent="1" source="O3lrr17sqKXVpt-QXPSw-16" target="O3lrr17sqKXVpt-QXPSw-20">
          <mxGeometry width="50" height="50" relative="1" as="geometry">
            <mxPoint x="360" y="530" as="sourcePoint" />
            <mxPoint x="340" y="560" as="targetPoint" />
          </mxGeometry>
        </mxCell>
        <mxCell id="O3lrr17sqKXVpt-QXPSw-26" value="" style="endArrow=none;html=1;exitX=1;exitY=1;exitDx=0;exitDy=0;entryX=0;entryY=0.5;entryDx=0;entryDy=0;" edge="1" parent="1" source="O3lrr17sqKXVpt-QXPSw-16" target="O3lrr17sqKXVpt-QXPSw-21">
          <mxGeometry width="50" height="50" relative="1" as="geometry">
            <mxPoint x="370" y="540" as="sourcePoint" />
            <mxPoint x="350" y="570" as="targetPoint" />
          </mxGeometry>
        </mxCell>
        <mxCell id="O3lrr17sqKXVpt-QXPSw-27" value="" style="endArrow=none;html=1;exitX=1;exitY=0.5;exitDx=0;exitDy=0;entryX=0;entryY=0.5;entryDx=0;entryDy=0;" edge="1" parent="1" source="O3lrr17sqKXVpt-QXPSw-16" target="O3lrr17sqKXVpt-QXPSw-22">
          <mxGeometry width="50" height="50" relative="1" as="geometry">
            <mxPoint x="380" y="550" as="sourcePoint" />
            <mxPoint x="360" y="580" as="targetPoint" />
          </mxGeometry>
        </mxCell>
        <mxCell id="O3lrr17sqKXVpt-QXPSw-28" value="" style="endArrow=none;html=1;exitX=0.5;exitY=1;exitDx=0;exitDy=0;entryX=0.5;entryY=0;entryDx=0;entryDy=0;" edge="1" parent="1" source="O3lrr17sqKXVpt-QXPSw-12" target="O3lrr17sqKXVpt-QXPSw-16">
          <mxGeometry width="50" height="50" relative="1" as="geometry">
            <mxPoint x="390" y="560" as="sourcePoint" />
            <mxPoint x="370" y="590" as="targetPoint" />
          </mxGeometry>
        </mxCell>
        <mxCell id="O3lrr17sqKXVpt-QXPSw-37" style="edgeStyle=orthogonalEdgeStyle;rounded=0;orthogonalLoop=1;jettySize=auto;html=1;exitX=1;exitY=0.5;exitDx=0;exitDy=0;entryX=0.35;entryY=0;entryDx=0;entryDy=0;entryPerimeter=0;endArrow=none;endFill=0;" edge="1" parent="1" source="O3lrr17sqKXVpt-QXPSw-32" target="O3lrr17sqKXVpt-QXPSw-33">
          <mxGeometry relative="1" as="geometry" />
        </mxCell>
        <mxCell id="O3lrr17sqKXVpt-QXPSw-32" value="JUEGAN" style="shape=rhombus;perimeter=rhombusPerimeter;whiteSpace=wrap;html=1;align=center;fillColor=#d5e8d4;strokeColor=#82b366;" vertex="1" parent="1">
          <mxGeometry x="220" y="650" width="120" height="60" as="geometry" />
        </mxCell>
        <mxCell id="O3lrr17sqKXVpt-QXPSw-33" value="PARTIDA" style="whiteSpace=wrap;html=1;align=center;fillColor=#dae8fc;strokeColor=#6c8ebf;" vertex="1" parent="1">
          <mxGeometry x="355" y="720" width="100" height="40" as="geometry" />
        </mxCell>
        <mxCell id="O3lrr17sqKXVpt-QXPSw-38" style="edgeStyle=orthogonalEdgeStyle;rounded=0;orthogonalLoop=1;jettySize=auto;html=1;exitX=0;exitY=0.5;exitDx=0;exitDy=0;entryX=0.702;entryY=-0.016;entryDx=0;entryDy=0;entryPerimeter=0;endArrow=none;endFill=0;" edge="1" parent="1" source="O3lrr17sqKXVpt-QXPSw-34" target="O3lrr17sqKXVpt-QXPSw-33">
          <mxGeometry relative="1" as="geometry" />
        </mxCell>
        <mxCell id="O3lrr17sqKXVpt-QXPSw-34" value="ARBITRAN" style="shape=rhombus;perimeter=rhombusPerimeter;whiteSpace=wrap;html=1;align=center;fillColor=#d5e8d4;strokeColor=#82b366;" vertex="1" parent="1">
          <mxGeometry x="460" y="650" width="120" height="60" as="geometry" />
        </mxCell>
        <mxCell id="O3lrr17sqKXVpt-QXPSw-39" value="" style="endArrow=none;html=1;entryX=0.5;entryY=1;entryDx=0;entryDy=0;exitX=0.5;exitY=0;exitDx=0;exitDy=0;" edge="1" parent="1" source="O3lrr17sqKXVpt-QXPSw-10" target="O3lrr17sqKXVpt-QXPSw-6">
          <mxGeometry width="50" height="50" relative="1" as="geometry">
            <mxPoint x="100" y="470" as="sourcePoint" />
            <mxPoint x="150" y="420" as="targetPoint" />
          </mxGeometry>
        </mxCell>
        <mxCell id="O3lrr17sqKXVpt-QXPSw-40" value="" style="endArrow=none;html=1;entryX=0.5;entryY=0;entryDx=0;entryDy=0;exitX=0.5;exitY=0;exitDx=0;exitDy=0;" edge="1" parent="1" source="O3lrr17sqKXVpt-QXPSw-11" target="O3lrr17sqKXVpt-QXPSw-6">
          <mxGeometry width="50" height="50" relative="1" as="geometry">
            <mxPoint x="240" y="410" as="sourcePoint" />
            <mxPoint x="392.5" y="305" as="targetPoint" />
          </mxGeometry>
        </mxCell>
        <mxCell id="O3lrr17sqKXVpt-QXPSw-41" value="PAÍSES" style="whiteSpace=wrap;html=1;align=center;fillColor=#dae8fc;strokeColor=#6c8ebf;" vertex="1" parent="1">
          <mxGeometry x="350" y="30" width="100" height="40" as="geometry" />
        </mxCell>
        <mxCell id="O3lrr17sqKXVpt-QXPSw-42" value="" style="endArrow=none;html=1;entryX=0.5;entryY=1;entryDx=0;entryDy=0;exitX=0.5;exitY=0;exitDx=0;exitDy=0;" edge="1" parent="1" source="O3lrr17sqKXVpt-QXPSw-1" target="O3lrr17sqKXVpt-QXPSw-41">
          <mxGeometry width="50" height="50" relative="1" as="geometry">
            <mxPoint x="100" y="340" as="sourcePoint" />
            <mxPoint x="150" y="290" as="targetPoint" />
          </mxGeometry>
        </mxCell>
        <mxCell id="O3lrr17sqKXVpt-QXPSw-43" value="" style="endArrow=none;html=1;entryX=0.5;entryY=0;entryDx=0;entryDy=0;exitX=0.5;exitY=1;exitDx=0;exitDy=0;" edge="1" parent="1" source="O3lrr17sqKXVpt-QXPSw-1" target="O3lrr17sqKXVpt-QXPSw-2">
          <mxGeometry width="50" height="50" relative="1" as="geometry">
            <mxPoint x="410" y="110" as="sourcePoint" />
            <mxPoint x="410" y="80" as="targetPoint" />
          </mxGeometry>
        </mxCell>
        <mxCell id="O3lrr17sqKXVpt-QXPSw-44" value="(1,N)" style="text;html=1;strokeColor=none;fillColor=none;align=center;verticalAlign=middle;whiteSpace=wrap;rounded=0;" vertex="1" parent="1">
          <mxGeometry x="360" y="170" width="40" height="20" as="geometry" />
        </mxCell>
        <mxCell id="O3lrr17sqKXVpt-QXPSw-45" value="Nº_CLUBES" style="ellipse;whiteSpace=wrap;html=1;align=center;fillColor=#ffe6cc;strokeColor=#d79b00;" vertex="1" parent="1">
          <mxGeometry x="480" y="80" width="110" height="40" as="geometry" />
        </mxCell>
        <mxCell id="O3lrr17sqKXVpt-QXPSw-46" value="Nº_CORRELATIVO" style="ellipse;whiteSpace=wrap;html=1;align=center;fillColor=#ffe6cc;strokeColor=#d79b00;fontStyle=4" vertex="1" parent="1">
          <mxGeometry x="480" y="130" width="110" height="40" as="geometry" />
        </mxCell>
        <mxCell id="O3lrr17sqKXVpt-QXPSw-47" value="" style="endArrow=none;html=1;entryX=1;entryY=0.5;entryDx=0;entryDy=0;exitX=0;exitY=0.5;exitDx=0;exitDy=0;" edge="1" parent="1" source="O3lrr17sqKXVpt-QXPSw-5" target="O3lrr17sqKXVpt-QXPSw-41">
          <mxGeometry width="50" height="50" relative="1" as="geometry">
            <mxPoint x="460" y="90" as="sourcePoint" />
            <mxPoint x="150" y="290" as="targetPoint" />
          </mxGeometry>
        </mxCell>
        <mxCell id="O3lrr17sqKXVpt-QXPSw-48" value="" style="endArrow=none;html=1;" edge="1" parent="1">
          <mxGeometry width="50" height="50" relative="1" as="geometry">
            <mxPoint x="470" y="150" as="sourcePoint" />
            <mxPoint x="470" y="50" as="targetPoint" />
          </mxGeometry>
        </mxCell>
        <mxCell id="O3lrr17sqKXVpt-QXPSw-49" value="" style="endArrow=none;html=1;exitX=0;exitY=0.5;exitDx=0;exitDy=0;" edge="1" parent="1" source="O3lrr17sqKXVpt-QXPSw-45">
          <mxGeometry width="50" height="50" relative="1" as="geometry">
            <mxPoint x="480" y="160" as="sourcePoint" />
            <mxPoint x="470" y="100" as="targetPoint" />
          </mxGeometry>
        </mxCell>
        <mxCell id="O3lrr17sqKXVpt-QXPSw-50" value="" style="endArrow=none;html=1;exitX=0;exitY=0.5;exitDx=0;exitDy=0;" edge="1" parent="1" source="O3lrr17sqKXVpt-QXPSw-46">
          <mxGeometry width="50" height="50" relative="1" as="geometry">
            <mxPoint x="490" y="110" as="sourcePoint" />
            <mxPoint x="470" y="150" as="targetPoint" />
          </mxGeometry>
        </mxCell>
      </root>
    </mxGraphModel>
  </diagram>
</mxfile>
